<svg width="71" height="80" viewBox="0 0 71 80" fill="none" xmlns="http://www.w3.org/2000/svg">
<g clip-path="url(#clip0_22_322)">
<path d="M47.6919 22.1628C47.5124 21.7364 47.2117 21.372 46.8272 21.1147C46.4426 20.8575 45.9911 20.7186 45.5285 20.7153H2.34562C1.72489 20.7156 1.12967 20.9623 0.690748 21.4013C0.251824 21.8402 0.00509066 22.4354 0.00476074 23.0561V77.6865C0.00509066 78.3072 0.251824 78.9024 0.690748 79.3414C1.12967 79.7803 1.72489 80.027 2.34562 80.0273H45.5301C46.1506 80.0265 46.7456 79.7796 47.1844 79.3408C47.6232 78.902 47.8701 78.3071 47.8709 77.6865V23.0561C47.8719 22.7495 47.8116 22.4457 47.6935 22.1628H47.6919Z" fill="#E5E7EB"/>
<path d="M44.1756 76.9601H3.81937C3.23785 76.9595 2.78247 76.3233 2.78247 75.5118V24.8348C2.78308 24.0225 3.23876 23.3864 3.81937 23.3864H44.1756C44.7575 23.3872 45.2128 24.0233 45.2128 24.8348V75.5118C45.2122 76.3239 44.7566 76.9601 44.1756 76.9601Z" fill="white"/>
<path d="M47.6919 22.1628C47.5124 21.7364 47.2117 21.372 46.8272 21.1147C46.4426 20.8575 45.9911 20.7186 45.5285 20.7153H2.34562C1.72489 20.7156 1.12967 20.9623 0.690748 21.4013C0.251824 21.8402 0.00509066 22.4354 0.00476074 23.0561V77.6865C0.00509066 78.3072 0.251824 78.9024 0.690748 79.3414C1.12967 79.7803 1.72489 80.027 2.34562 80.0273H45.5301C46.1506 80.0265 46.7456 79.7796 47.1844 79.3408C47.6232 78.902 47.8701 78.3071 47.8709 77.6865V23.0561C47.8719 22.7495 47.8116 22.4457 47.6935 22.1628H47.6919ZM47.3495 77.6865C47.3489 78.1693 47.1569 78.6321 46.8155 78.9735C46.4741 79.3149 46.0113 79.5069 45.5285 79.5075H2.34562C1.86279 79.5074 1.39974 79.3156 1.05827 78.9743C0.7168 78.6329 0.524847 78.1699 0.5246 77.6871V23.0565C0.525259 22.5737 0.717325 22.1109 1.05869 21.7695C1.40005 21.4282 1.86286 21.2361 2.34562 21.2354H45.5301C45.8937 21.2368 46.2487 21.3465 46.5498 21.5506C46.8509 21.7546 47.0843 22.0437 47.2203 22.381C47.2468 22.4482 47.2697 22.5168 47.2888 22.5864C47.3301 22.7397 47.3511 22.8977 47.3511 23.0565L47.3495 77.6865Z" fill="#111827"/>
<path d="M38.6801 33.6134H25.6728C25.3968 33.6134 25.1322 33.5037 24.937 33.3086C24.7419 33.1134 24.6322 32.8487 24.6322 32.5727C24.6322 32.2967 24.7419 32.0321 24.937 31.8369C25.1322 31.6417 25.3968 31.5321 25.6728 31.5321H38.6801C38.9561 31.5321 39.2208 31.6417 39.416 31.8369C39.6111 32.0321 39.7208 32.2967 39.7208 32.5727C39.7208 32.8487 39.6111 33.1134 39.416 33.3086C39.2208 33.5037 38.9561 33.6134 38.6801 33.6134Z" fill="#111827"/>
<path d="M38.6801 39.0763H25.6728C25.3968 39.0763 25.1322 38.9667 24.937 38.7715C24.7419 38.5764 24.6322 38.3117 24.6322 38.0357C24.6322 37.7597 24.7419 37.495 24.937 37.2999C25.1322 37.1047 25.3968 36.9951 25.6728 36.9951H38.6801C38.9561 36.9951 39.2208 37.1047 39.416 37.2999C39.6111 37.495 39.7208 37.7597 39.7208 38.0357C39.7208 38.3117 39.6111 38.5764 39.416 38.7715C39.2208 38.9667 38.9561 39.0763 38.6801 39.0763Z" fill="#111827"/>
<path d="M18.9989 42.187H9.49324C9.18285 42.1867 8.88525 42.0632 8.66577 41.8437C8.44628 41.6243 8.32284 41.3267 8.32251 41.0163V29.7988C8.32284 29.4884 8.44628 29.1909 8.66577 28.9714C8.88525 28.7519 9.18285 28.6284 9.49324 28.6281H18.9989C19.3093 28.6284 19.6069 28.7519 19.8264 28.9714C20.0459 29.1909 20.1693 29.4884 20.1697 29.7988V41.0163C20.1693 41.3267 20.0459 41.6243 19.8264 41.8437C19.6069 42.0632 19.3093 42.1867 18.9989 42.187Z" fill="#0D9488"/>
<path d="M38.5899 50.2625H9.19344C8.91745 50.2625 8.65277 50.1528 8.45762 49.9577C8.26246 49.7625 8.15283 49.4979 8.15283 49.2219C8.15283 48.9459 8.26246 48.6812 8.45762 48.486C8.65277 48.2909 8.91745 48.1812 9.19344 48.1812H38.5899C38.8659 48.1812 39.1305 48.2909 39.3257 48.486C39.5209 48.6812 39.6305 48.9459 39.6305 49.2219C39.6305 49.4979 39.5209 49.7625 39.3257 49.9577C39.1305 50.1528 38.8659 50.2625 38.5899 50.2625Z" fill="#E5E7EB"/>
<path d="M38.59 55.7255H9.19353C8.91754 55.7262 8.65254 55.6173 8.45685 55.4227C8.26115 55.2281 8.15079 54.9637 8.15003 54.6877C8.14926 54.4117 8.25817 54.1467 8.45278 53.951C8.64739 53.7553 8.91176 53.645 9.18775 53.6442H38.59C38.8659 53.6442 39.1306 53.7539 39.3258 53.949C39.5209 54.1442 39.6306 54.4088 39.6306 54.6848C39.6306 54.9608 39.5209 55.2255 39.3258 55.4207C39.1306 55.6158 38.8659 55.7255 38.59 55.7255Z" fill="#E5E7EB"/>
<path d="M38.5899 61.1887H9.19344C8.91745 61.1887 8.65277 61.0791 8.45762 60.8839C8.26246 60.6888 8.15283 60.4241 8.15283 60.1481C8.15283 59.8721 8.26246 59.6074 8.45762 59.4123C8.65277 59.2171 8.91745 59.1075 9.19344 59.1075H38.5899C38.8659 59.1067 39.1309 59.2156 39.3265 59.4102C39.5222 59.6049 39.6326 59.8692 39.6334 60.1452C39.6342 60.4212 39.5252 60.6862 39.3306 60.8819C39.136 61.0776 38.8716 61.188 38.5956 61.1887H38.5899Z" fill="#E5E7EB"/>
<path d="M38.59 66.6517H9.19353C9.05687 66.6521 8.92149 66.6255 8.79509 66.5736C8.66869 66.5217 8.55375 66.4453 8.45685 66.349C8.35995 66.2526 8.28298 66.1381 8.23034 66.012C8.17769 65.8859 8.15041 65.7506 8.15003 65.614C8.14965 65.4773 8.17619 65.3419 8.22813 65.2155C8.28008 65.0891 8.35642 64.9742 8.45278 64.8773C8.54914 64.7804 8.66364 64.7034 8.78975 64.6508C8.91586 64.5981 9.05109 64.5708 9.18775 64.5705H38.59C38.8659 64.5705 39.1306 64.6801 39.3258 64.8753C39.5209 65.0704 39.6306 65.3351 39.6306 65.6111C39.6306 65.8871 39.5209 66.1518 39.3258 66.3469C39.1306 66.5421 38.8659 66.6517 38.59 66.6517Z" fill="#E5E7EB"/>
<path d="M38.59 72.1147H9.19353C8.91754 72.1155 8.65254 72.0066 8.45685 71.8119C8.26115 71.6173 8.15079 71.3529 8.15003 71.077C8.14926 70.801 8.25817 70.536 8.45278 70.3403C8.64739 70.1446 8.91176 70.0342 9.18775 70.0334H38.59C38.8659 70.0334 39.1306 70.1431 39.3258 70.3382C39.5209 70.5334 39.6306 70.7981 39.6306 71.0741C39.6306 71.3501 39.5209 71.6147 39.3258 71.8099C39.1306 72.0051 38.8659 72.1147 38.59 72.1147Z" fill="#E5E7EB"/>
<path d="M53.0899 33.5032C62.3734 33.5032 69.8992 25.9774 69.8992 16.6938C69.8992 7.41028 62.3734 -0.115517 53.0899 -0.115517C43.8063 -0.115517 36.2805 7.41028 36.2805 16.6938C36.2805 25.9774 43.8063 33.5032 53.0899 33.5032Z" fill="#0D9488"/>
<path d="M55.7374 17.2513V7.97787H50.9617V17.2513H48.7319L51.0404 21.2498L53.3495 25.2488L55.6586 21.2498L57.9674 17.2507L55.7374 17.2513Z" fill="white"/>
</g>
<defs>
<clipPath id="clip0_22_322">
<rect width="70.0389" height="80" fill="white"/>
</clipPath>
</defs>
</svg>
