<svg width="114" height="114" viewBox="0 0 114 114" fill="none" xmlns="http://www.w3.org/2000/svg">
<rect x="56.5686" width="80" height="80" rx="20" transform="rotate(45 56.5686 0)" fill="url(#paint0_linear_48_864)"/>
<path d="M51.68 49.9285C51.04 49.2351 50.36 48.7151 49.64 48.3685C48.9467 47.9951 48.1333 47.8085 47.2 47.8085C46.0533 47.8085 45.08 48.0751 44.28 48.6085C43.5067 49.1151 42.88 49.8351 42.4 50.7685C41.92 51.6751 41.5733 52.7418 41.36 53.9685C41.1467 55.1951 41.04 56.5151 41.04 57.9285C41.04 59.3418 41.1333 60.6618 41.32 61.8885C41.5333 63.1151 41.88 64.1951 42.36 65.1285C42.8667 66.0618 43.5333 66.7951 44.36 67.3285C45.2133 67.8618 46.28 68.1285 47.56 68.1285C48.1733 68.1285 48.76 68.0751 49.32 67.9685C49.88 67.8618 50.3867 67.7551 50.84 67.6485C51.32 67.5151 51.7067 67.3951 52 67.2885C52.32 67.1818 52.52 67.1151 52.6 67.0885L53.72 70.4485L53.2 70.6485C52.8533 70.7818 52.36 70.9418 51.72 71.1285C51.1067 71.2885 50.36 71.4351 49.48 71.5685C48.6267 71.7285 47.68 71.8085 46.64 71.8085C43.0667 71.8085 40.3733 70.6751 38.56 68.4085C36.7733 66.1151 35.88 62.7685 35.88 58.3685C35.88 56.2618 36.12 54.3418 36.6 52.6085C37.08 50.8485 37.8 49.3418 38.76 48.0885C39.7467 46.8351 40.9733 45.8618 42.44 45.1685C43.9333 44.4751 45.68 44.1285 47.68 44.1285C49.28 44.1285 50.5867 44.4218 51.6 45.0085C52.64 45.5951 53.48 46.2618 54.12 47.0085L51.68 49.9285ZM70.2528 71.5685H66.5328L56.4128 44.4885H61.4928L64.8528 54.1685C65.7061 56.6751 66.4395 58.8885 67.0528 60.8085C67.6661 62.7018 68.1328 64.1551 68.4528 65.1685C68.7461 64.1551 69.1861 62.7285 69.7728 60.8885C70.3861 59.0218 71.1461 56.8085 72.0528 54.2485L75.5328 44.4885H80.3728L70.2528 71.5685Z" fill="white"/>
<defs>
<linearGradient id="paint0_linear_48_864" x1="56.5686" y1="40" x2="159.404" y2="40" gradientUnits="userSpaceOnUse">
<stop stop-color="#0D9488"/>
<stop offset="1" stop-color="#111827"/>
</linearGradient>
</defs>
</svg>
