<svg width="68" height="80" viewBox="0 0 68 80" fill="none" xmlns="http://www.w3.org/2000/svg">
<g clip-path="url(#clip0_22_307)">
<path d="M44.9178 26.1181H29.8111C29.4906 26.1181 29.1832 25.9907 28.9565 25.7641C28.7299 25.5374 28.6025 25.23 28.6025 24.9095C28.6025 24.589 28.7299 24.2815 28.9565 24.0549C29.1832 23.8282 29.4906 23.7009 29.8111 23.7009H44.9178C45.2384 23.7009 45.5458 23.8282 45.7724 24.0549C45.9991 24.2815 46.1264 24.589 46.1264 24.9095C46.1264 25.23 45.9991 25.5374 45.7724 25.7641C45.5458 25.9907 45.2384 26.1181 44.9178 26.1181Z" fill="#111827"/>
<path d="M44.9177 32.4629H29.811C29.6522 32.4631 29.4948 32.432 29.348 32.3713C29.2012 32.3107 29.0678 32.2217 28.9554 32.1094C28.843 31.9972 28.7538 31.8639 28.693 31.7172C28.6321 31.5704 28.6008 31.4131 28.6008 31.2543C28.6008 31.0954 28.6321 30.9381 28.693 30.7914C28.7538 30.6447 28.843 30.5114 28.9554 30.3991C29.0678 30.2869 29.2012 30.1979 29.348 30.1372C29.4948 30.0766 29.6522 30.0455 29.811 30.0457H44.9177C45.0766 30.0455 45.2339 30.0766 45.3807 30.1372C45.5275 30.1979 45.661 30.2869 45.7734 30.3991C45.8858 30.5114 45.9749 30.6447 46.0358 30.7914C46.0966 30.9381 46.1279 31.0954 46.1279 31.2543C46.1279 31.4131 46.0966 31.5704 46.0358 31.7172C45.9749 31.8639 45.8858 31.9972 45.7734 32.1094C45.661 32.2217 45.5275 32.3107 45.3807 32.3713C45.2339 32.432 45.0766 32.4631 44.9177 32.4629Z" fill="#111827"/>
<path d="M22.0599 36.0756H11.02C10.6595 36.0752 10.3139 35.9318 10.0589 35.6769C9.80404 35.422 9.66066 35.0764 9.66028 34.7159V21.6879C9.66066 21.3274 9.80404 20.9818 10.0589 20.7269C10.3139 20.472 10.6595 20.3286 11.02 20.3282H22.0599C22.4204 20.3286 22.766 20.472 23.0209 20.7269C23.2758 20.9818 23.4192 21.3274 23.4196 21.6879V34.7159C23.4192 35.0764 23.2758 35.422 23.0209 35.6769C22.766 35.9318 22.4204 36.0752 22.0599 36.0756Z" fill="#0D9488"/>
<path d="M44.8129 45.4546H10.6718C10.3513 45.4546 10.0439 45.3272 9.81724 45.1006C9.59059 44.8739 9.46326 44.5665 9.46326 44.246C9.46326 43.9254 9.59059 43.618 9.81724 43.3914C10.0439 43.1647 10.3513 43.0374 10.6718 43.0374H44.8129C45.1334 43.0374 45.4408 43.1647 45.6675 43.3914C45.8941 43.618 46.0215 43.9254 46.0215 44.246C46.0215 44.5665 45.8941 44.8739 45.6675 45.1006C45.4408 45.3272 45.1334 45.4546 44.8129 45.4546Z" fill="#E5E7EB"/>
<path d="M44.8129 51.7995H10.6718C10.3513 51.7995 10.0439 51.6722 9.81724 51.4455C9.59059 51.2189 9.46326 50.9115 9.46326 50.591C9.46326 50.2704 9.59059 49.963 9.81724 49.7364C10.0439 49.5097 10.3513 49.3824 10.6718 49.3824H44.8129C45.1334 49.3824 45.4408 49.5097 45.6675 49.7364C45.8941 49.963 46.0215 50.2704 46.0215 50.591C46.0215 50.9115 45.8941 51.2189 45.6675 51.4455C45.4408 51.6722 45.1334 51.7995 44.8129 51.7995Z" fill="#E5E7EB"/>
<path d="M44.813 58.1443H10.6719C10.3517 58.1439 10.0447 58.0163 9.81838 57.7897C9.59207 57.5631 9.46497 57.256 9.46497 56.9357C9.46497 56.6155 9.59207 56.3083 9.81838 56.0817C10.0447 55.8551 10.3517 55.7276 10.6719 55.7271H44.813C44.9718 55.7269 45.1292 55.758 45.276 55.8187C45.4228 55.8793 45.5562 55.9683 45.6686 56.0805C45.781 56.1928 45.8702 56.3261 45.931 56.4728C45.9919 56.6196 46.0232 56.7769 46.0232 56.9357C46.0232 57.0946 45.9919 57.2518 45.931 57.3986C45.8702 57.5453 45.781 57.6786 45.6686 57.7909C45.5562 57.9031 45.4228 57.9921 45.276 58.0528C45.1292 58.1134 44.9718 58.1445 44.813 58.1443Z" fill="#E5E7EB"/>
<path d="M44.8129 64.4891H10.6718C10.3513 64.4891 10.0439 64.3617 9.81724 64.1351C9.59059 63.9084 9.46326 63.601 9.46326 63.2805C9.46326 62.9599 9.59059 62.6525 9.81724 62.4259C10.0439 62.1992 10.3513 62.0719 10.6718 62.0719H44.8129C45.1334 62.0719 45.4408 62.1992 45.6675 62.4259C45.8941 62.6525 46.0215 62.9599 46.0215 63.2805C46.0215 63.601 45.8941 63.9084 45.6675 64.1351C45.4408 64.3617 45.1334 64.4891 44.8129 64.4891Z" fill="#E5E7EB"/>
<path d="M44.8129 70.8338H10.6718C10.3513 70.8338 10.0439 70.7064 9.81724 70.4798C9.59059 70.2531 9.46326 69.9457 9.46326 69.6252C9.46326 69.3046 9.59059 68.9972 9.81724 68.7706C10.0439 68.5439 10.3513 68.4166 10.6718 68.4166H44.8129C45.1334 68.4166 45.4408 68.5439 45.6675 68.7706C45.8941 68.9972 46.0215 69.3046 46.0215 69.6252C46.0215 69.9457 45.8941 70.2531 45.6675 70.4798C45.4408 70.7064 45.1334 70.8338 44.8129 70.8338Z" fill="#E5E7EB"/>
<path d="M55.7588 79.3271C62.2004 79.3271 67.4223 74.1052 67.4223 67.6635C67.4223 61.2219 62.2004 56 55.7588 56C49.3172 56 44.0952 61.2219 44.0952 67.6635C44.0952 74.1052 49.3172 79.3271 55.7588 79.3271Z" fill="#0D9488"/>
<path d="M54.6032 72.1129C54.3408 72.1133 54.0853 72.0284 53.8754 71.871L53.8624 71.8613L51.1213 69.7644C50.9943 69.6671 50.8878 69.5457 50.8077 69.4072C50.7277 69.2687 50.6757 69.1158 50.6548 68.9572C50.6338 68.7986 50.6443 68.6375 50.6857 68.4829C50.727 68.3284 50.7984 68.1835 50.8957 68.0566C50.993 67.9296 51.1144 67.8231 51.2529 67.743C51.3914 67.663 51.5443 67.611 51.7029 67.5901C51.8615 67.5691 52.0227 67.5796 52.1772 67.6209C52.3317 67.6623 52.4766 67.7336 52.6035 67.831L54.379 69.1925L58.5745 63.719C58.6718 63.5921 58.7931 63.4856 58.9316 63.4056C59.07 63.3256 59.2229 63.2736 59.3814 63.2527C59.5399 63.2317 59.701 63.2422 59.8555 63.2835C60.0099 63.3249 60.1548 63.3962 60.2817 63.4935L60.282 63.4938L60.256 63.5299L60.2827 63.4938C60.5387 63.6905 60.7062 63.9808 60.7484 64.3009C60.7907 64.621 60.7042 64.9448 60.5079 65.2012L55.5731 71.6364C55.4589 71.7847 55.3122 71.9046 55.1441 71.987C54.9761 72.0694 54.7914 72.112 54.6042 72.1114L54.6032 72.1129Z" fill="white"/>
</g>
<defs>
<clipPath id="clip0_22_307">
<rect width="67.4933" height="80" fill="white"/>
</clipPath>
</defs>
</svg>
