<svg width="257" height="114" viewBox="0 0 257 114" fill="none" xmlns="http://www.w3.org/2000/svg">
<path d="M120.497 42.0725C120.721 42.0725 121.233 42.0725 122.033 42.0725C122.833 42.0405 123.729 42.0245 124.721 42.0245C125.713 42.0245 126.705 42.0245 127.697 42.0245C128.689 41.9925 129.505 41.9765 130.145 41.9765C133.857 41.9765 136.673 42.7125 138.593 44.1845C140.545 45.6565 141.521 47.7365 141.521 50.4245C141.521 51.9925 141.089 53.4005 140.225 54.6485C139.361 55.8965 138.161 56.9045 136.625 57.6725C138.545 58.4085 140.001 59.4485 140.993 60.7925C142.017 62.1365 142.529 63.6885 142.529 65.4485C142.529 68.2005 141.489 70.4245 139.409 72.1205C137.329 73.7845 134.177 74.6165 129.953 74.6165C129.089 74.6165 128.161 74.6165 127.169 74.6165C126.177 74.6165 125.233 74.6005 124.337 74.5685C123.441 74.5685 122.641 74.5685 121.937 74.5685C121.265 74.5685 120.785 74.5685 120.497 74.5685V42.0725ZM126.209 70.4885H130.337C132.513 70.4885 134.065 70.0085 134.993 69.0485C135.953 68.0565 136.433 66.8245 136.433 65.3525C136.433 64.6805 136.321 64.0245 136.097 63.3845C135.905 62.7445 135.553 62.1685 135.041 61.6565C134.529 61.1445 133.841 60.7445 132.977 60.4565C132.145 60.1365 131.089 59.9765 129.809 59.9765C129.041 59.9765 128.353 59.9765 127.745 59.9765C127.169 59.9765 126.657 59.9925 126.209 60.0245V70.4885ZM126.209 55.8965H129.905C131.921 55.8965 133.361 55.4325 134.225 54.5045C135.089 53.5765 135.521 52.4405 135.521 51.0965C135.521 50.4885 135.425 49.8805 135.233 49.2725C135.041 48.6645 134.705 48.1205 134.225 47.6405C133.777 47.1605 133.153 46.7765 132.353 46.4885C131.585 46.2005 130.609 46.0565 129.425 46.0565C128.721 46.0565 128.097 46.0565 127.553 46.0565C127.041 46.0565 126.593 46.0725 126.209 46.1045V55.8965ZM163.526 50.6645H168.998V63.0005C168.998 64.9205 169.11 66.5365 169.334 67.8485C169.59 69.1285 169.862 70.1685 170.15 70.9685C170.502 71.9285 170.886 72.6805 171.302 73.2245L167.03 74.9525C166.646 74.6005 166.294 74.1525 165.974 73.6085C165.718 73.1605 165.446 72.6165 165.158 71.9765C164.902 71.3045 164.726 70.5205 164.63 69.6245C163.766 71.5125 162.55 72.8565 160.982 73.6565C159.414 74.4565 157.782 74.8565 156.086 74.8565C153.558 74.8565 151.75 74.1205 150.662 72.6485C149.606 71.1765 149.078 69.1605 149.078 66.6005V50.6645H154.55V66.5045C154.55 67.8485 154.79 68.9045 155.27 69.6725C155.75 70.4405 156.566 70.8245 157.718 70.8245C158.422 70.8245 159.11 70.6325 159.782 70.2485C160.486 69.8325 161.11 69.2565 161.654 68.5205C162.23 67.7845 162.678 66.9045 162.998 65.8805C163.35 64.8245 163.526 63.6565 163.526 62.3765V50.6645ZM194.91 74.9525C194.846 74.9205 194.702 74.7765 194.478 74.5205C194.254 74.2325 193.998 73.8485 193.71 73.3685C193.454 72.8885 193.198 72.2965 192.942 71.5925C192.686 70.8565 192.526 70.0085 192.462 69.0485C191.918 70.9685 191.038 72.4245 189.822 73.4165C188.638 74.3765 187.022 74.8565 184.974 74.8565C183.47 74.8565 182.158 74.5845 181.038 74.0405C179.95 73.4645 179.038 72.6645 178.302 71.6405C177.566 70.5845 177.022 69.3205 176.67 67.8485C176.318 66.3765 176.142 64.7445 176.142 62.9525C176.142 61.1285 176.414 59.4485 176.958 57.9125C177.534 56.3445 178.318 55.0005 179.31 53.8805C180.334 52.7605 181.55 51.8805 182.958 51.2405C184.366 50.6005 185.918 50.2805 187.614 50.2805C188.19 50.2805 188.798 50.3125 189.438 50.3765C190.11 50.4405 190.766 50.5205 191.406 50.6165V39.7685L196.878 40.7285V63.0005C196.878 64.9205 196.99 66.5205 197.214 67.8005C197.438 69.0485 197.694 70.0725 197.982 70.8725C198.27 71.6405 198.526 72.2005 198.75 72.5525C199.006 72.9045 199.15 73.1285 199.182 73.2245L194.91 74.9525ZM185.886 70.9685C186.686 70.9685 187.422 70.6965 188.094 70.1525C188.766 69.6085 189.342 68.9045 189.822 68.0405C190.334 67.1445 190.718 66.1365 190.974 65.0165C191.262 63.8965 191.406 62.7445 191.406 61.5605V54.6485C191.086 54.5525 190.606 54.4405 189.966 54.3125C189.326 54.1845 188.75 54.1205 188.238 54.1205C187.022 54.1205 186.014 54.3285 185.214 54.7445C184.446 55.1605 183.822 55.7365 183.342 56.4725C182.862 57.2085 182.526 58.0885 182.334 59.1125C182.142 60.1365 182.046 61.2565 182.046 62.4725C182.046 63.5925 182.078 64.6645 182.142 65.6885C182.206 66.7125 182.366 67.6245 182.622 68.4245C182.91 69.1925 183.31 69.8165 183.822 70.2965C184.334 70.7445 185.022 70.9685 185.886 70.9685ZM222.564 74.9525C222.5 74.9205 222.356 74.7765 222.132 74.5205C221.908 74.2325 221.652 73.8485 221.364 73.3685C221.108 72.8885 220.852 72.2965 220.596 71.5925C220.34 70.8565 220.18 70.0085 220.116 69.0485C219.572 70.9685 218.692 72.4245 217.476 73.4165C216.292 74.3765 214.676 74.8565 212.628 74.8565C211.124 74.8565 209.812 74.5845 208.692 74.0405C207.604 73.4645 206.692 72.6645 205.956 71.6405C205.22 70.5845 204.676 69.3205 204.324 67.8485C203.972 66.3765 203.796 64.7445 203.796 62.9525C203.796 61.1285 204.068 59.4485 204.612 57.9125C205.188 56.3445 205.972 55.0005 206.964 53.8805C207.988 52.7605 209.204 51.8805 210.612 51.2405C212.02 50.6005 213.572 50.2805 215.268 50.2805C215.844 50.2805 216.452 50.3125 217.092 50.3765C217.764 50.4405 218.42 50.5205 219.06 50.6165V39.7685L224.532 40.7285V63.0005C224.532 64.9205 224.644 66.5205 224.868 67.8005C225.092 69.0485 225.348 70.0725 225.636 70.8725C225.924 71.6405 226.18 72.2005 226.404 72.5525C226.66 72.9045 226.804 73.1285 226.836 73.2245L222.564 74.9525ZM213.54 70.9685C214.34 70.9685 215.076 70.6965 215.748 70.1525C216.42 69.6085 216.996 68.9045 217.476 68.0405C217.988 67.1445 218.372 66.1365 218.628 65.0165C218.916 63.8965 219.06 62.7445 219.06 61.5605V54.6485C218.74 54.5525 218.26 54.4405 217.62 54.3125C216.98 54.1845 216.404 54.1205 215.892 54.1205C214.676 54.1205 213.668 54.3285 212.868 54.7445C212.1 55.1605 211.476 55.7365 210.996 56.4725C210.516 57.2085 210.18 58.0885 209.988 59.1125C209.796 60.1365 209.7 61.2565 209.7 62.4725C209.7 63.5925 209.732 64.6645 209.796 65.6885C209.86 66.7125 210.02 67.6245 210.276 68.4245C210.564 69.1925 210.964 69.8165 211.476 70.2965C211.988 70.7445 212.676 70.9685 213.54 70.9685ZM252.426 64.8725C252.426 65.8325 252.49 66.7125 252.618 67.5125C252.778 68.3125 252.938 69.1125 253.098 69.9125C253.29 70.6805 253.466 71.4645 253.626 72.2645C253.786 73.0645 253.866 73.9445 253.866 74.9045C253.866 78.2965 253.002 80.8245 251.274 82.4885C249.546 84.1525 247.21 84.9845 244.266 84.9845C243.306 84.9845 242.346 84.8885 241.386 84.6965C240.426 84.5365 239.53 84.3445 238.698 84.1205C237.898 83.8965 237.21 83.6725 236.634 83.4485C236.058 83.2245 235.674 83.0645 235.482 82.9685L236.826 78.7925C237.274 78.9845 237.77 79.1765 238.314 79.3685C238.89 79.5925 239.466 79.8005 240.042 79.9925C240.65 80.1845 241.274 80.3445 241.914 80.4725C242.554 80.6005 243.178 80.6645 243.786 80.6645C245.578 80.6645 246.874 80.1205 247.674 79.0325C248.474 77.9765 248.874 76.6005 248.874 74.9045C248.874 73.3685 248.554 71.7845 247.914 70.1525C247.018 71.8485 245.818 73.0645 244.314 73.8005C242.842 74.5045 241.29 74.8565 239.658 74.8565C237.13 74.8565 235.322 74.1205 234.234 72.6485C233.178 71.1765 232.65 69.1605 232.65 66.6005V50.6645H238.122V66.4565C238.122 67.8005 238.362 68.8565 238.842 69.6245C239.322 70.3925 240.138 70.7765 241.29 70.7765C241.898 70.7765 242.538 70.6005 243.21 70.2485C243.914 69.8965 244.538 69.4165 245.082 68.8085C245.658 68.1685 246.122 67.4165 246.474 66.5525C246.858 65.6565 247.05 64.6965 247.05 63.6725V50.6645H252.666L252.426 64.8725Z" fill="#111827"/>
<rect x="56.5687" width="80" height="80" rx="20" transform="rotate(45 56.5687 0)" fill="url(#paint0_linear_48_862)"/>
<path d="M51.6801 49.9285C51.0401 49.2352 50.3601 48.7152 49.6401 48.3685C48.9467 47.9952 48.1334 47.8085 47.2001 47.8085C46.0534 47.8085 45.0801 48.0752 44.2801 48.6085C43.5067 49.1152 42.8801 49.8352 42.4001 50.7685C41.9201 51.6752 41.5734 52.7418 41.3601 53.9685C41.1467 55.1952 41.0401 56.5152 41.0401 57.9285C41.0401 59.3418 41.1334 60.6618 41.3201 61.8885C41.5334 63.1152 41.8801 64.1952 42.3601 65.1285C42.8667 66.0618 43.5334 66.7952 44.3601 67.3285C45.2134 67.8618 46.2801 68.1285 47.5601 68.1285C48.1734 68.1285 48.7601 68.0752 49.3201 67.9685C49.8801 67.8618 50.3867 67.7552 50.8401 67.6485C51.3201 67.5152 51.7067 67.3952 52.0001 67.2885C52.3201 67.1818 52.5201 67.1152 52.6001 67.0885L53.7201 70.4485L53.2001 70.6485C52.8534 70.7818 52.3601 70.9418 51.7201 71.1285C51.1067 71.2885 50.3601 71.4352 49.4801 71.5685C48.6267 71.7285 47.6801 71.8085 46.6401 71.8085C43.0667 71.8085 40.3734 70.6752 38.5601 68.4085C36.7734 66.1152 35.8801 62.7685 35.8801 58.3685C35.8801 56.2618 36.1201 54.3418 36.6001 52.6085C37.0801 50.8485 37.8001 49.3418 38.7601 48.0885C39.7467 46.8352 40.9734 45.8618 42.4401 45.1685C43.9334 44.4752 45.6801 44.1285 47.6801 44.1285C49.2801 44.1285 50.5867 44.4218 51.6001 45.0085C52.6401 45.5952 53.4801 46.2618 54.1201 47.0085L51.6801 49.9285ZM70.2529 71.5685H66.5329L56.4129 44.4885H61.4929L64.8529 54.1685C65.7062 56.6752 66.4395 58.8885 67.0529 60.8085C67.6662 62.7018 68.1329 64.1552 68.4529 65.1685C68.7462 64.1552 69.1862 62.7285 69.7729 60.8885C70.3862 59.0218 71.1462 56.8085 72.0529 54.2485L75.5329 44.4885H80.3729L70.2529 71.5685Z" fill="white"/>
<defs>
<linearGradient id="paint0_linear_48_862" x1="56.5687" y1="40" x2="159.404" y2="40" gradientUnits="userSpaceOnUse">
<stop stop-color="#0D9488"/>
<stop offset="1" stop-color="#111827"/>
</linearGradient>
</defs>
</svg>
