<svg width="80" height="80" viewBox="0 0 80 80" fill="none" xmlns="http://www.w3.org/2000/svg">
<g clip-path="url(#clip0_22_272)">
<path d="M70.3966 39.3966C69.065 39.3983 67.7741 38.9402 66.7438 38.1003C65.7135 37.2604 65.0078 36.0908 64.7468 34.7909C64.4859 33.491 64.6859 32.1412 65.3128 30.9716C65.9397 29.8021 66.9547 28.8852 68.1847 28.3773C69.4147 27.8694 70.7835 27.8019 72.0579 28.1864C73.3323 28.5708 74.4333 29.3834 75.1732 30.4855C75.9131 31.5877 76.2461 32.9112 76.1155 34.2304C75.9848 35.5497 75.3986 36.783 74.4567 37.72C73.3797 38.792 71.9196 39.3949 70.3966 39.3966ZM70.3963 28.3803C69.3452 28.3812 68.3178 28.6922 67.4442 29.2742C66.5706 29.8561 65.8898 30.6828 65.488 31.6498C65.0861 32.6168 64.9812 33.6806 65.1865 34.7069C65.3919 35.7332 65.8982 36.6759 66.6415 37.4159C67.3848 38.1558 68.3317 38.6598 69.3627 38.8641C70.3936 39.0685 71.4623 38.964 72.4336 38.5639C73.4049 38.1638 74.2353 37.486 74.8198 36.6163C75.4043 35.7465 75.7167 34.7238 75.7175 33.6773C75.7161 32.2728 75.155 30.9263 74.1574 29.9332C73.1598 28.9401 71.8071 28.3816 70.3963 28.3803Z" fill="#E5E7EB"/>
<rect x="64.3903" y="27.8049" width="11.7073" height="11.7073" rx="5.85366" fill="#0D9488"/>
<path d="M69.3414 34.6174L68.1526 33.4619L67.6422 33.9581L69.3414 35.6098L72.8455 32.2035L72.335 31.7073L69.3414 34.6174Z" fill="white"/>
<path d="M31.2022 63.7345C31.3987 63.492 31.5394 63.2096 31.6143 62.9072C31.6893 62.6048 31.6968 62.2897 31.6362 61.9841C31.5757 61.6785 31.4485 61.3898 31.2638 61.1384C31.079 60.887 30.8411 60.679 30.5669 60.529L31.8411 53.064L28.2236 54.6493L27.5681 61.4951C27.3456 61.9705 27.3059 62.5106 27.4567 63.0131C27.6074 63.5156 27.9381 63.9457 28.386 64.2217C28.834 64.4977 29.3681 64.6006 29.8871 64.5108C30.4061 64.421 30.8741 64.1448 31.2022 63.7345Z" fill="#FFB6B6"/>
<path d="M26.7656 59.4321L26.106 40.7635L26.1056 40.7508L29.6465 23.616C29.7656 23.0513 30.0642 22.5398 30.4981 22.1573C30.9321 21.7748 31.4783 21.5416 32.0558 21.4923C32.4671 21.4588 32.8807 21.5203 33.2644 21.6719C33.648 21.8236 33.9913 22.0613 34.2676 22.3666C34.5438 22.6719 34.7456 23.0366 34.8572 23.4322C34.9688 23.8278 34.9871 24.2437 34.9109 24.6475L32.1626 39.1922L32.1042 59.5524L26.7656 59.4321Z" fill="#E5E7EB"/>
<path d="M47.4074 42.3419L48.4034 44.468L51.3945 72.1583L48.4558 108.918L43.2603 109.088L44.1577 75.1249L37.7256 61.3561L37.3466 109.664H32.8023L28.5084 61.1873C28.5084 61.1873 27.0277 47.6997 32.4 42.3419H47.4074Z" fill="#111827"/>
<path d="M32.3862 42.4471L32.3076 42.4368L29.6911 26.2018C29.5238 25.1728 29.7081 24.1177 30.2145 23.2053C30.7209 22.2929 31.5201 21.576 32.4843 21.1693L35.189 20.0242L43.6431 19.9491L46.9991 21.9425C48.2876 22.7073 49.3232 23.8307 49.9783 25.1742C50.6334 26.5177 50.8794 28.0226 50.6859 29.5036L48.7196 44.587L32.3862 42.4471Z" fill="#E5E7EB"/>
<path d="M48.3693 65.3071C48.1695 65.0673 48.0251 64.7868 47.946 64.4854C47.867 64.184 47.8552 63.8691 47.9117 63.5627C47.9682 63.2563 48.0914 62.9659 48.2728 62.7121C48.4541 62.4583 48.6892 62.2471 48.9614 62.0935L47.5869 54.6461L51.2254 56.1831L51.9729 63.0195C52.2018 63.4919 52.2487 64.0314 52.1047 64.5359C51.9608 65.0404 51.6359 65.4748 51.1917 65.7568C50.7475 66.0388 50.2149 66.1487 49.6947 66.0658C49.1745 65.983 48.7029 65.713 48.3693 65.3071Z" fill="#FFB6B6"/>
<path d="M44.4787 42.5911L44.4766 42.5786L45.6277 25.1225C45.668 24.5469 45.8935 23.9995 46.2707 23.5614C46.648 23.1234 47.1569 22.8179 47.7222 22.6904C48.1251 22.6012 48.5433 22.6058 48.9442 22.7037C49.345 22.8017 49.7178 22.9904 50.0334 23.2551C50.3491 23.5199 50.5991 23.8536 50.764 24.2303C50.929 24.607 51.0044 25.0165 50.9844 25.4269L50.2623 40.2092L53.0045 60.3857L47.6996 60.994L44.4787 42.5911Z" fill="#E5E7EB"/>
<path d="M40.4595 18.5648C43.5427 18.5648 46.0421 16.0765 46.0421 13.0071C46.0421 9.93776 43.5427 7.44952 40.4595 7.44952C37.3763 7.44952 34.8768 9.93776 34.8768 13.0071C34.8768 16.0765 37.3763 18.5648 40.4595 18.5648Z" fill="#FFB6B6"/>
<path d="M30.9424 20.0514C31.5356 19.5489 32.2618 19.2312 32.9075 18.7976C33.5532 18.364 34.1506 17.7523 34.2577 16.9843C34.3865 16.062 33.7915 15.2179 33.4088 14.3682C32.2185 11.7252 33.2612 8.28561 35.7214 6.73921C38.1816 5.19281 41.7493 5.73455 43.6344 7.9408C44.4987 6.8214 46.452 6.81595 47.3225 7.93051C48.193 9.04508 47.7064 10.9283 46.4036 11.4863C45.489 11.8781 44.3747 11.6697 43.5152 12.1701C42.618 12.6925 42.279 13.8651 42.4384 14.8875C42.5979 15.9099 43.155 16.8212 43.7005 17.7019L42.4956 15.8783C43.154 17.2658 43.8238 18.695 43.9239 20.2263C44.0241 21.7575 43.424 23.4358 42.0763 24.1807C40.8951 24.8336 39.2723 24.7311 38.4081 25.7651C38.0651 26.2 37.8881 26.7417 37.9084 27.2942C36.6063 27.0944 35.3002 26.9189 33.9959 26.7354C32.5454 26.5314 31.0948 26.3273 29.6443 26.1233C29.5134 25.6601 29.4202 25.1872 29.3656 24.7091C29.1802 23.0136 29.6375 21.1566 30.9424 20.0514Z" fill="#111827"/>
<path d="M61.3286 0C61.0957 0.000360783 60.8725 0.0927176 60.7079 0.256791C60.5434 0.420864 60.4509 0.643243 60.4509 0.875097C60.4509 1.10695 60.5434 1.32933 60.7079 1.4934C60.8725 1.65747 61.0957 1.74983 61.3286 1.75019H79.1602C79.3933 1.75019 79.6169 1.65799 79.7817 1.49388C79.9466 1.32977 80.0392 1.10719 80.0392 0.875097C80.0392 0.643007 79.9466 0.420421 79.7817 0.256309C79.6169 0.0921967 79.3933 0 79.1602 0H61.3286Z" fill="#0D9488"/>
<path d="M61.3285 5.15576C61.0954 5.15576 60.8718 5.24796 60.7069 5.41207C60.5421 5.57618 60.4495 5.79877 60.4495 6.03086C60.4495 6.26295 60.5421 6.48553 60.7069 6.64964C60.8718 6.81376 61.0954 6.90595 61.3285 6.90595H79.1601C79.3932 6.90595 79.6168 6.81376 79.7816 6.64964C79.9465 6.48553 80.0391 6.26295 80.0391 6.03086C80.0391 5.79877 79.9465 5.57618 79.7816 5.41207C79.6168 5.24796 79.3932 5.15576 79.1601 5.15576H61.3285Z" fill="#0D9488"/>
<path d="M61.3286 10.3663C61.0957 10.3667 60.8725 10.4591 60.7079 10.6231C60.5434 10.7872 60.4509 11.0096 60.4509 11.2414C60.4509 11.4733 60.5434 11.6957 60.7079 11.8597C60.8725 12.0238 61.0957 12.1162 61.3286 12.1165H79.1602C79.3933 12.1165 79.6169 12.0243 79.7817 11.8602C79.9466 11.6961 80.0392 11.4735 80.0392 11.2414C80.0392 11.0093 79.9466 10.7868 79.7817 10.6226C79.6169 10.4585 79.3933 10.3663 79.1602 10.3663H61.3286Z" fill="#0D9488"/>
<path d="M10.0541 39.1856C8.95977 39.1856 7.89004 38.8626 6.98016 38.2574C6.07027 37.6521 5.3611 36.7919 4.94232 35.7854C4.52353 34.779 4.41395 33.6715 4.62742 32.603C4.84088 31.5345 5.36782 30.5531 6.14159 29.7827C6.91536 29.0124 7.90122 28.4877 8.97449 28.2752C10.0478 28.0626 11.1602 28.1717 12.1713 28.5885C13.1823 29.0054 14.0464 29.7113 14.6544 30.6171C15.2624 31.5229 15.587 32.5878 15.587 33.6772C15.5854 35.1376 15.0019 36.5377 13.9647 37.5704C12.9274 38.603 11.521 39.1839 10.0541 39.1856ZM10.0541 28.6845C9.06217 28.6845 8.09254 28.9773 7.26781 29.5259C6.44307 30.0745 5.80026 30.8543 5.42068 31.7666C5.04109 32.6789 4.94177 33.6827 5.13528 34.6512C5.32879 35.6197 5.80644 36.5093 6.50782 37.2076C7.2092 37.9058 8.10282 38.3813 9.07566 38.574C10.0485 38.7666 11.0569 38.6677 11.9733 38.2899C12.8897 37.912 13.6729 37.272 14.224 36.451C14.7751 35.63 15.0692 34.6647 15.0692 33.6772C15.0675 32.3536 14.5386 31.0848 13.5984 30.1489C12.6582 29.2131 11.3836 28.6866 10.0541 28.6851V28.6845Z" fill="#E5E7EB"/>
<path d="M1.09275 0C0.859855 0.000360783 0.636621 0.0927176 0.472066 0.256791C0.307511 0.420864 0.215088 0.643243 0.215088 0.875097C0.215088 1.10695 0.307511 1.32933 0.472066 1.4934C0.636621 1.65747 0.859855 1.74983 1.09275 1.75019H18.9243C19.1572 1.74983 19.3805 1.65747 19.545 1.4934C19.7096 1.32933 19.802 1.10695 19.802 0.875097C19.802 0.643243 19.7096 0.420864 19.545 0.256791C19.3805 0.0927176 19.1572 0.000360783 18.9243 0H1.09275Z" fill="#E5E7EB"/>
<path d="M1.09275 5.15576C0.859855 5.15612 0.636621 5.24848 0.472066 5.41255C0.307511 5.57663 0.215088 5.799 0.215088 6.03086C0.215088 6.26271 0.307511 6.48509 0.472066 6.64916C0.636621 6.81323 0.859855 6.90559 1.09275 6.90595H18.9243C19.1575 6.90595 19.3811 6.81376 19.5459 6.64964C19.7108 6.48553 19.8034 6.26295 19.8034 6.03086C19.8034 5.79877 19.7108 5.57618 19.5459 5.41207C19.3811 5.24796 19.1575 5.15576 18.9243 5.15576H1.09275Z" fill="#E5E7EB"/>
<path d="M1.09275 10.3663C0.859855 10.3667 0.636621 10.4591 0.472066 10.6231C0.307511 10.7872 0.215088 11.0096 0.215088 11.2414C0.215088 11.4733 0.307511 11.6957 0.472066 11.8597C0.636621 12.0238 0.859855 12.1162 1.09275 12.1165H18.9243C19.1572 12.1162 19.3805 12.0238 19.545 11.8597C19.7096 11.6957 19.802 11.4733 19.802 11.2414C19.802 11.0096 19.7096 10.7872 19.545 10.6231C19.3805 10.4591 19.1572 10.3667 18.9243 10.3663H1.09275Z" fill="#E5E7EB"/>
</g>
<defs>
<clipPath id="clip0_22_272">
<rect width="80" height="80" fill="white"/>
</clipPath>
</defs>
</svg>
