<svg width="20" height="21" viewBox="0 0 20 21" fill="none" xmlns="http://www.w3.org/2000/svg">
<g clip-path="url(#clip0_15_228)">
<path d="M9.99999 5.83633C12.3 5.83633 14.1667 7.703 14.1667 10.003C14.1667 10.5447 14.0583 11.053 13.8667 11.528L16.3 13.9613C17.5583 12.9113 18.55 11.553 19.1583 10.003C17.7167 6.34467 14.1583 3.753 9.99166 3.753C8.82499 3.753 7.70833 3.96133 6.67499 4.33633L8.47499 6.13633C8.95 5.94467 9.45833 5.83633 9.99999 5.83633ZM1.66666 3.56133L3.56666 5.46133L3.94999 5.84467C2.56666 6.91967 1.48333 8.353 0.833328 10.003C2.27499 13.6613 5.83333 16.253 9.99999 16.253C11.2917 16.253 12.525 16.003 13.65 15.553L14 15.903L16.4417 18.3363L17.5 17.278L2.72499 2.503L1.66666 3.56133ZM6.27499 8.16967L7.56666 9.46133C7.52499 9.63633 7.49999 9.81967 7.49999 10.003C7.49999 11.3863 8.61666 12.503 9.99999 12.503C10.1833 12.503 10.3667 12.478 10.5417 12.4363L11.8333 13.728C11.275 14.003 10.6583 14.1697 9.99999 14.1697C7.69999 14.1697 5.83333 12.303 5.83333 10.003C5.83333 9.34467 5.99999 8.728 6.27499 8.16967ZM9.86666 7.51967L12.4917 10.1447L12.5083 10.0113C12.5083 8.628 11.3917 7.51133 10.0083 7.51133L9.86666 7.51967Z" fill="#9CA3AF"/>
</g>
<defs>
<clipPath id="clip0_15_228">
<rect width="20" height="20" fill="white" transform="translate(0 0.00299835)"/>
</clipPath>
</defs>
</svg>
